<svg width="68" height="66" viewBox="0 0 68 66" fill="none" xmlns="http://www.w3.org/2000/svg">
<path opacity="0.98" fill-rule="evenodd" clip-rule="evenodd" d="M31.4785 0.0781354C36.8731 0.0138522 42.3592 0.794415 46.9766 2.90821C62.2733 9.91104 71.8614 27.1369 64.4961 46.168C62.8971 50.2998 59.1751 55.3351 55.4668 58.7012C52.1358 61.7247 45.5346 65.0531 43.6074 65.3047C42.5697 65.1326 42.6102 64.9522 42.2598 64.6309C41.0469 62.8848 43.9154 51.5236 39.9688 48.3242C45.778 48.0066 50.5495 45.6685 52.6367 41.8555C55.9862 35.7371 56.1652 27.7524 51.6934 22.584C52.9975 19.9253 52.2375 15.7531 51.2891 13.6895C46.3901 13.8758 44.956 15.4287 42.125 17.0586C40.2834 16.7442 38.4583 16.4387 36.5996 16.25C33.6709 15.9679 30.228 16.0883 27.7051 16.5195C26.8516 16.6992 26.1488 16.9912 25.2793 17.0586C23.278 16.2586 21.0057 13.6942 15.8457 13.6895C15.5313 14.9471 15.0549 16.1755 14.9023 17.4629C14.6749 19.1042 15.1864 21.8208 15.4414 22.7188L14.0938 24.4707C13.2717 25.8479 12.6799 27.3501 12.3418 28.918C12.0685 30.191 11.9585 32.2355 12.207 34.4434C12.4318 36.4414 12.8481 38.392 13.2852 39.4297C14.4846 42.2795 16.752 44.9206 19.4421 46.3265C22.5046 47.7178 27.166 48.3242 27.166 48.3242C27.166 48.3242 25.6539 49.8201 25.1445 52.6367C23.6547 53.5127 19.9977 54.2287 17.8672 52.3672C16.35 51.0415 15.4758 49.125 13.959 47.9199C12.2179 46.5368 9.87559 45.9982 8.83789 46.8418V47.5156C9.77667 48.9297 11.6938 49.3707 12.4766 51.0195C14.4904 55.2614 15.4042 59.1032 25.1445 57.6231C25.2964 59.9788 25.4802 63.3832 24.6055 64.9004C20.7295 65.9505 14.6617 61.07 12.3418 59.2402C3.08192 51.9368 -3.75784 36.238 2.50391 20.9668C4.20407 16.8192 6.71188 13.0511 9.88148 9.88149C13.0511 6.71189 16.8192 4.20408 20.9668 2.50392C22.305 1.95677 27.263 0.442003 31.4785 0.0781354Z" fill="#505050"/>
</svg>
