<svg width="65" height="65" viewBox="0 0 65 65" fill="none" xmlns="http://www.w3.org/2000/svg">
<path fill-rule="evenodd" clip-rule="evenodd" d="M4.73828 0.830078C18.8175 0.993549 32.6811 0.919967 46.6504 0.964844C50.6818 0.964844 60.0164 0.905412 61.0703 1.23438C62.1856 1.71201 63.0937 2.57227 63.6309 3.66016C64.1063 5.02641 64.0352 11.8156 64.0352 15.1152C64.08 27.0633 63.9903 39.0148 64.0352 50.9629C63.9926 54.4835 64.2219 58.4956 63.7656 61.0703C63.3271 62.3597 62.1455 63.5195 60.666 64.0352C59.1866 64.5508 52.7477 64.3047 48.6719 64.3047C37.4055 64.3572 14.1719 64.3047 14.1719 64.3047C14.1719 64.3047 6.40937 64.5621 3.52539 64.0352C2.19323 63.6819 0.791934 62.3506 0.425776 60.2617C0.380899 55.7251 0.470653 51.9956 0.425776 47.459V15.3848C0.425776 11.1654 0.168508 5.68757 0.964838 3.39062C1.58287 2.171 3.13012 1.07131 4.73828 0.830078ZM19.293 12.6895C18.3236 10.8371 16.6615 9.93363 14.9805 9.85938C13.8657 9.78822 12.4738 10.2313 11.7461 10.668C10.8785 11.1886 9.76234 12.5606 9.45507 13.6328C9.2315 15.4348 9.40561 17.38 10.668 18.7539C12.1573 20.375 14.9658 20.7046 16.3281 20.2363C17.75 19.7475 18.5538 19.0361 19.293 17.9453C20.1192 16.3692 20.0541 14.3755 19.293 12.6895ZM54.332 54.7363C54.3885 50.5625 54.3252 41.1342 54.332 40.5859C54.418 33.7838 53.7543 28.4216 50.5586 26.0312C49.0174 24.8783 47.559 24.4421 45.168 24.1445C43.0962 23.8867 40.4907 24.0906 38.9688 24.8184C36.954 25.7815 35.5956 27.2551 34.1172 28.8613C34.1235 26.5579 34.0739 27.463 34.1172 24.8184C32.5481 24.7808 26.2993 24.8274 25.3574 24.8184C25.2466 34.7898 25.2227 44.8994 25.2227 54.7363C28.2321 54.6915 31.3773 54.7812 34.3867 54.7363C34.3463 51.785 34.4165 45.4182 34.3867 43.6855C34.3319 40.4925 34.4137 38.1248 34.791 36.1387C35.2357 33.7986 37.0483 32.0404 40.3164 32.0957C43.514 32.3136 44.7149 33.9435 45.168 36.8125C45.2426 43.4102 45.1585 51.3018 45.168 54.7363H54.332ZM9.99414 54.7363C16.4041 54.7284 16.6393 54.7284 19.1582 54.7363V24.8184C16.1733 24.8399 13.0456 24.8184 9.99414 24.8184V54.7363Z" fill="#505050"/>
</svg>
