<svg width="63" height="51" viewBox="0 0 63 51" fill="none" xmlns="http://www.w3.org/2000/svg">
<path fill-rule="evenodd" clip-rule="evenodd" d="M43.168 0.646462C47.6346 0.582179 50.5057 2.26769 52.7363 4.55467C55.7909 4.03407 57.7053 3.14434 60.6875 1.58982C60.2418 3.62236 57.5954 7.0016 55.2969 8.46287C56.3856 8.35409 57.4661 8.17402 58.5312 7.92381C60.4627 7.33987 60.3804 7.32801 62.3047 6.57615C61.1188 8.3839 59.5576 10.4275 56.1055 13.1797C56.5843 17.663 54.7982 24.6633 53.6797 27.4648C48.9066 39.4261 40.8675 47.0087 27.2656 49.9707C18.8967 51.7931 5.56836 49.0436 0.986328 44.8496C11.5235 45.8638 16.7389 42.0952 19.4492 39.7285C14.1885 39.4859 9.23816 35.8099 7.85938 30.9687C10.4334 31.2039 11.8696 31.162 13.5195 30.6992C7.42556 29.1924 3.58919 24.9626 3.41211 18.3008C6.01767 19.438 6.14785 19.4211 8.9375 19.7832C8.71298 19.5137 5.35395 17.1445 4.35547 13.8535C3.10606 9.63668 3.10848 7.5214 5.16406 2.93748L8.39844 6.44138C13.4022 11.4207 21.5424 15.9267 31.1738 16.0097C29.6105 8.73981 34.4686 3.24286 38.8555 1.45506C40.2354 0.938062 41.6945 0.664471 43.168 0.646462Z" fill="#505050"/>
</svg>
