<svg width="67" height="47" viewBox="0 0 67 47" fill="none" xmlns="http://www.w3.org/2000/svg">
<path fill-rule="evenodd" clip-rule="evenodd" d="M29.0393 0.56895C33.2333 0.532833 44.5043 0.710858 45.5719 0.715305C46.6395 0.719753 59.4483 0.922036 62.1045 3.20254C64.1681 5.02713 64.3394 5.7705 64.8843 7.15279C66.1552 10.6331 66.4218 22.6006 66.3474 26.0263C66.2025 32.6988 66.0464 41.0257 62.1045 43.7294C58.1515 46.7453 46.886 46.2125 37.8176 46.5092C30.2686 46.6457 8.68964 46.9843 4.75179 43.8755C-0.179822 40.3661 0.618799 25.2385 0.655186 19.1498C1.05948 12.7484 1.44397 7.65627 2.84984 5.39706C3.48014 4.66596 4.04441 3.13704 7.38538 2.03197C10.0931 1.13631 14.8712 1.15356 22.1623 0.715171L29.0393 0.56895ZM26.8447 13.5901V33.3415C32.4525 30.1231 38.3547 26.7574 43.9625 23.5389C32.6779 16.8844 35.1722 18.5191 26.8441 13.5901H26.8447Z" fill="#505050"/>
</svg>
